<?xml version="1.0" encoding="utf-8"?>
<!-- Generator: Adobe Illustrator 25.4.1, SVG Export Plug-In . SVG Version: 6.00 Build 0)  -->
<svg version="1.1" id="Layer_1" xmlns="http://www.w3.org/2000/svg" xmlns:xlink="http://www.w3.org/1999/xlink" x="0px" y="0px"
	 viewBox="0 0 259.9 59.6" style="enable-background:new 0 0 259.9 59.6;" xml:space="preserve">
<style type="text/css">
	.st0{fill:#033D5F;}
	.st1{fill-rule:evenodd;clip-rule:evenodd;fill:#033D5F;stroke:#033D5F;stroke-width:1.9786;stroke-miterlimit:10;}
	.st2{fill-rule:evenodd;clip-rule:evenodd;fill:#033D5F;}
	.st3{fill-rule:evenodd;clip-rule:evenodd;fill:#FFFFFF;}
	.st4{fill-rule:evenodd;clip-rule:evenodd;fill:#64AB4C;}
	.st5{fill-rule:evenodd;clip-rule:evenodd;fill:#EC760D;}
</style>
<g>
	<g>
		<path class="st0" d="M4.9,45.1c-0.6,0-1.2-0.2-1.6-0.6c-0.4-0.4-0.6-1-0.6-1.6c0-0.3,0.1-0.7,0.2-1l12.6-29.7
			c0.2-0.5,0.6-1,1.1-1.4s1.1-0.6,1.8-0.6h0.5c0.7,0,1.3,0.2,1.8,0.6c0.4,0.4,0.8,0.9,1,1.4l12.6,29.7c0.1,0.3,0.2,0.6,0.2,1
			c0,0.6-0.2,1.1-0.6,1.6c-0.9,0.8-2.4,0.8-3.3-0.2c-0.2-0.2-0.3-0.4-0.4-0.6L27,36H10.2L7,43.7C6.7,44.6,5.8,45.1,4.9,45.1z
			 M12,31.9h13.3l-6.6-16L12,31.9z"/>
		<path class="st0" d="M42.8,56.4c-0.6,0-1.2-0.2-1.6-0.7c-0.4-0.4-0.7-1-0.6-1.6V21.7c0-0.6,0.2-1.2,0.6-1.6c0.4-0.4,1-0.7,1.6-0.6
			c0.6,0,1.2,0.2,1.6,0.6c0.4,0.4,0.7,1,0.6,1.6V23c1.1-1.1,2.4-2.1,3.8-2.8c1.4-0.7,3-1,4.6-1c2,0,4,0.5,5.7,1.5
			c1.9,1.1,3.4,2.6,4.5,4.4c2.3,4.4,2.3,9.7,0,14.2c-1.1,1.8-2.6,3.4-4.5,4.4c-1.7,1-3.7,1.5-5.7,1.5c-1.6,0-3.2-0.3-4.6-1
			c-1.4-0.7-2.7-1.6-3.8-2.8V54c0,0.6-0.2,1.2-0.6,1.6C44,56.2,43.4,56.4,42.8,56.4z M52.8,41.1c2.2,0.1,4.2-0.8,5.8-2.3
			c1.5-1.5,2.3-3.7,2.3-6.6s-0.8-5.1-2.3-6.6s-3.6-2.3-5.8-2.2c-1.5,0-3,0.3-4.4,1.1c-1.3,0.7-2.4,1.6-3.4,2.6v10.4
			c1,1.1,2.1,2,3.4,2.6C49.8,40.8,51.3,41.2,52.8,41.1L52.8,41.1z"/>
		<path class="st0" d="M73.9,45.1c-1.2,0-2.2-1-2.2-2.2l0,0V21.7c0-0.6,0.2-1.2,0.6-1.6s1-0.7,1.6-0.6c0.6,0,1.2,0.2,1.6,0.6
			s0.7,1,0.7,1.6v2c1.1-1.2,2.4-2.2,3.7-3.1c1.6-1,3.5-1.5,5.4-1.4c3.3-0.1,6.4,1.8,7.8,4.8c0.7,1.5,1,3.2,1,4.8v14
			c0,0.6-0.2,1.2-0.7,1.6c-0.4,0.4-1,0.7-1.6,0.6c-1.2,0-2.2-1-2.2-2.2l0,0V29.4c0.1-1.6-0.3-3.1-1.3-4.4c-0.8-1.1-2.2-1.6-4.2-1.6
			c-1.7,0-3.3,0.5-4.6,1.4c-1.3,0.9-2.5,2-3.4,3.3v14.8c0,0.6-0.2,1.2-0.7,1.6C75,44.8,74.4,45.1,73.9,45.1z"/>
		<path class="st0" d="M112.8,45.4c-2.3,0.1-4.6-0.5-6.7-1.7c-1.9-1.1-3.4-2.7-4.4-4.6c-2.1-4.3-2.1-9.3,0-13.7
			c1-1.9,2.5-3.5,4.4-4.6c2-1.1,4.3-1.7,6.7-1.7c2.3-0.1,4.6,0.5,6.6,1.7c1.9,1.1,3.4,2.7,4.4,4.6c2.1,4.3,2.1,9.3,0,13.7
			c-1,1.9-2.5,3.5-4.4,4.6C117.4,44.8,115.1,45.4,112.8,45.4z M112.8,41.3c1.3,0,2.6-0.3,3.7-0.9c1.3-0.6,2.4-1.6,3.1-2.9
			c1.7-3.3,1.7-7.2,0-10.5c-0.7-1.2-1.8-2.2-3.1-2.8c-1.2-0.6-2.4-0.8-3.7-0.9c-1.3,0-2.6,0.3-3.8,0.9c-1.3,0.6-2.4,1.6-3.1,2.8
			c-0.9,1.6-1.3,3.4-1.2,5.2c-0.1,1.8,0.3,3.6,1.2,5.2c0.7,1.3,1.8,2.3,3.1,2.9C110.1,40.9,111.4,41.2,112.8,41.3L112.8,41.3z"/>
		<path class="st0" d="M134,45.1c-1.2,0-2.2-1-2.2-2.2l0,0V12.5c0-0.6,0.2-1.2,0.6-1.6c0.4-0.4,1-0.7,1.6-0.7c1.3,0,2.3,1,2.3,2.3
			l0,0v15.7l16.8-17.1c0.2-0.2,0.4-0.4,0.7-0.5c0.3-0.2,0.6-0.3,1-0.2c0.6,0,1.1,0.2,1.5,0.6c0.4,0.4,0.6,0.9,0.5,1.5
			c0,0.5-0.2,1-0.5,1.4l-11.4,11.3L158,41.7c0.3,0.4,0.5,0.9,0.5,1.4c0,0.6-0.2,1.1-0.6,1.5c-0.4,0.4-1,0.7-1.6,0.6
			c-0.7,0-1.4-0.3-1.8-0.9l-12.7-16.2l-5.6,5.7V43c0,0.6-0.2,1.2-0.7,1.6C135.2,44.8,134.6,45.1,134,45.1z"/>
		<path class="st0" d="M170.3,45.4c-1.4,0-2.7-0.3-4-0.9c-1.2-0.6-2.2-1.4-3-2.5c-0.8-1.2-1.1-2.6-1.1-4c0-2.2,1-4.4,2.8-5.7
			c1.9-1.5,4.7-2.2,8.5-2.2h5.9v-0.5c0-2.2-0.5-3.8-1.6-4.7c-1.4-1-3.2-1.5-4.9-1.4c-1.2,0-2.4,0.1-3.6,0.4c-1,0.2-2,0.5-3,0.8
			c-0.2,0.1-0.4,0.1-0.6,0.1c-0.5,0-1-0.2-1.3-0.5c-0.4-0.3-0.6-0.8-0.5-1.3c0-0.8,0.5-1.6,1.3-1.9c1.2-0.5,2.5-0.9,3.8-1.3
			c1.5-0.4,3.1-0.5,4.7-0.5c2.1-0.1,4.1,0.4,5.9,1.4c1.4,0.9,2.6,2.1,3.4,3.6c0.7,1.4,1.1,3,1.1,4.6v13.9c0,0.6-0.2,1.2-0.7,1.6
			c-0.4,0.4-1,0.7-1.6,0.6c-1.2,0-2.2-1-2.2-2.2l0,0v-1.3c-1,1-2.2,1.9-3.6,2.6C174.3,45,172.3,45.4,170.3,45.4z M172,41.4
			c1.5,0,3-0.4,4.3-1.1c1.2-0.7,2.3-1.5,3.3-2.6v-4.1h-5.4c-1.9-0.1-3.7,0.2-5.4,0.9c-1.2,0.5-2,1.7-2,3c0,1,0.4,2,1.1,2.8
			C168.6,41,170,41.4,172,41.4z"/>
		<path class="st1" d="M221.4,13.5c1.7,0,1.6-3.4,0-3.7H212c-18.1,0.2-24.1,32.1,1.1,35.3c1.8,0,3.5-0.7,4.7-2l12.3-25.8
			c0.6-1.3,1.1-1.4,1.7,0l12.5,27.4c1.4,0.8,3.2,0.7,4.6-0.1l-15.6-33.7c-1.3-1.6-2.7-1.9-4.1,0.1l-13.3,27.7
			c-0.5,1.1-1.4,2-2.6,2.3c-15.9,0.6-20.1-25.2-0.8-27.6L221.4,13.5z"/>
		<path class="st2" d="M230.6,19.2L242.8,46c0.2,0.3,0.4,0.4,0.6,0.4l-0.1,0.7c-0.5-0.1-0.8-0.4-1-0.8l-12-26.3L230.6,19.2z"/>
		<polygon class="st3" points="234.9,28 242.5,25.4 244.7,29.6 234.1,33.6 232.9,28.8 		"/>
		<g>
			<path class="st4" d="M230,33.5c0,0,16.9-5.6,25.7-9.1c-2.9,1.9-6.2,3.8-10,5.7c-4,2-7.8,3.5-11.1,4.6c0.7,1.7,1.4,3.3,2.2,5
				l-2.5,1.6C232.8,38.7,231.4,36.1,230,33.5z"/>
			<path class="st5" d="M222.1,30.2c0,0,17.6-3.9,26.8-6.9c-3,1.7-18.5,7.9-22.1,8.9c0.7,1.6,1.4,2.7,2.1,4.4l-2.6,1.4
				C224.8,35.4,223.5,32.8,222.1,30.2z"/>
		</g>
	</g>
	<g>
		<path d="M241.6,4.8h-2.8V3.3h7.2v1.5h-2.8v8.1h-1.8L241.6,4.8L241.6,4.8z"/>
		<path d="M255.2,9c-0.1-1.2-0.2-2.8-0.1-4H255c-0.3,1.1-0.7,2.4-1.1,3.6l-1.4,4.1h-1.3l-1.3-4c-0.4-1.2-0.7-2.5-1-3.7l0,0
			c-0.1,1.2-0.1,2.8-0.2,4l-0.2,3.8h-1.6l0.6-9.6h2.3l1.2,3.8c0.3,1.1,0.6,2.3,0.9,3.3h0.1c0.2-1.1,0.6-2.2,1-3.3l1.3-3.8h2.3
			l0.6,9.6h-1.7L255.2,9z"/>
	</g>
</g>
</svg>
