<?xml version="1.0" encoding="utf-8"?>
<svg version="1.1" id="Layer_1" xmlns="http://www.w3.org/2000/svg" xmlns:xlink="http://www.w3.org/1999/xlink" x="0px" y="0px"
	 viewBox="0 0 256.3 48.4" style="enable-background:new 0 0 256.3 48.4;" xml:space="preserve">
<style type="text/css">
	.st0{fill:#fff;}
	.st1{fill-rule:evenodd;clip-rule:evenodd;fill:#fff;stroke:#fff;stroke-width:1.9786;stroke-miterlimit:10;}
	.st2{fill-rule:evenodd;clip-rule:evenodd;fill:#fff;}
	.st3{fill-rule:evenodd;clip-rule:evenodd;fill:#FFFFFF;}
	.st4{fill-rule:evenodd;clip-rule:evenodd;fill:#64AB4C;}
	.st5{fill-rule:evenodd;clip-rule:evenodd;fill:#EC760D;}
</style>
<g>
	<path class="st0" d="M3.6,36.8c-0.6,0-1.2-0.2-1.6-0.6c-0.4-0.4-0.6-1-0.6-1.6c0-0.3,0.1-0.7,0.2-1L14.2,3.9c0.2-0.5,0.6-1,1.1-1.4
		c0.5-0.4,1.1-0.6,1.8-0.6h0.5c0.7,0,1.3,0.2,1.8,0.6c0.4,0.4,0.8,0.9,1,1.4L33,33.6c0.1,0.3,0.2,0.6,0.2,1c0,0.6-0.2,1.1-0.6,1.6
		C31.7,37,30.2,37,29.3,36c-0.2-0.2-0.3-0.4-0.4-0.6l-3.2-7.7H8.9l-3.2,7.7C5.4,36.3,4.5,36.8,3.6,36.8z M10.7,23.6H24l-6.6-16
		L10.7,23.6z"/>
	<path class="st0" d="M41.5,48.1c-0.6,0-1.2-0.2-1.6-0.7c-0.4-0.4-0.7-1-0.6-1.6V13.4c0-0.6,0.2-1.2,0.6-1.6c0.4-0.4,1-0.7,1.6-0.6
		c0.6,0,1.2,0.2,1.6,0.6c0.4,0.4,0.7,1,0.6,1.6v1.3c1.1-1.1,2.4-2.1,3.8-2.8c1.4-0.7,3-1,4.6-1c2,0,4,0.5,5.7,1.5
		c1.9,1.1,3.4,2.6,4.5,4.4c2.3,4.4,2.3,9.7,0,14.2c-1.1,1.8-2.6,3.4-4.5,4.4c-1.7,1-3.7,1.5-5.7,1.5c-1.6,0-3.2-0.3-4.6-1
		c-1.4-0.7-2.7-1.6-3.8-2.8v12.6c0,0.6-0.2,1.2-0.6,1.6C42.7,47.9,42.1,48.1,41.5,48.1z M51.5,32.8c2.2,0.1,4.2-0.8,5.8-2.3
		c1.5-1.5,2.3-3.7,2.3-6.6s-0.8-5.1-2.3-6.6c-1.5-1.5-3.6-2.3-5.8-2.2c-1.5,0-3,0.3-4.4,1.1c-1.3,0.7-2.4,1.6-3.4,2.6v10.4
		c1,1.1,2.1,2,3.4,2.6C48.5,32.5,50,32.9,51.5,32.8L51.5,32.8z"/>
	<path class="st0" d="M72.6,36.8c-1.2,0-2.2-1-2.2-2.2c0,0,0,0,0,0V13.4c0-0.6,0.2-1.2,0.6-1.6c0.4-0.4,1-0.7,1.6-0.6
		c0.6,0,1.2,0.2,1.6,0.6c0.4,0.4,0.7,1,0.7,1.6v2c1.1-1.2,2.4-2.2,3.7-3.1c1.6-1,3.5-1.5,5.4-1.4c3.3-0.1,6.4,1.8,7.8,4.8
		c0.7,1.5,1,3.2,1,4.8v14c0,0.6-0.2,1.2-0.7,1.6c-0.4,0.4-1,0.7-1.6,0.6c-1.2,0-2.2-1-2.2-2.2c0,0,0,0,0,0V21.1
		c0.1-1.6-0.3-3.1-1.3-4.4c-0.8-1.1-2.2-1.6-4.2-1.6c-1.7,0-3.3,0.5-4.6,1.4c-1.3,0.9-2.5,2-3.4,3.3v14.8c0,0.6-0.2,1.2-0.7,1.6
		C73.7,36.5,73.1,36.8,72.6,36.8z"/>
	<path class="st0" d="M111.5,37.1c-2.3,0.1-4.6-0.5-6.7-1.7c-1.9-1.1-3.4-2.7-4.4-4.6c-2.1-4.3-2.1-9.3,0-13.7
		c1-1.9,2.5-3.5,4.4-4.6c2-1.1,4.3-1.7,6.7-1.7c2.3-0.1,4.6,0.5,6.6,1.7c1.9,1.1,3.4,2.7,4.4,4.6c2.1,4.3,2.1,9.3,0,13.7
		c-1,1.9-2.5,3.5-4.4,4.6C116.1,36.5,113.8,37.1,111.5,37.1z M111.5,33c1.3,0,2.6-0.3,3.7-0.9c1.3-0.6,2.4-1.6,3.1-2.9
		c1.7-3.3,1.7-7.2,0-10.5c-0.7-1.2-1.8-2.2-3.1-2.8c-1.2-0.6-2.4-0.8-3.7-0.9c-1.3,0-2.6,0.3-3.8,0.9c-1.3,0.6-2.4,1.6-3.1,2.8
		c-0.9,1.6-1.3,3.4-1.2,5.2c-0.1,1.8,0.3,3.6,1.2,5.2c0.7,1.3,1.8,2.3,3.1,2.9C108.8,32.6,110.1,32.9,111.5,33L111.5,33z"/>
	<path class="st0" d="M132.7,36.8c-1.2,0-2.2-1-2.2-2.2c0,0,0,0,0,0V4.2c0-0.6,0.2-1.2,0.6-1.6c0.4-0.4,1-0.7,1.6-0.7
		c1.3,0,2.3,1,2.3,2.3c0,0,0,0,0,0v15.7l16.8-17.1c0.2-0.2,0.4-0.4,0.7-0.5c0.3-0.2,0.6-0.3,1-0.2c0.6,0,1.1,0.2,1.5,0.6
		c0.4,0.4,0.6,0.9,0.5,1.5c0,0.5-0.2,1-0.5,1.4l-11.4,11.3l13.1,16.5c0.3,0.4,0.5,0.9,0.5,1.4c0,0.6-0.2,1.1-0.6,1.5
		c-0.4,0.4-1,0.7-1.6,0.6c-0.7,0-1.4-0.3-1.8-0.9l-12.7-16.2l-5.6,5.7v9.2c0,0.6-0.2,1.2-0.7,1.6C133.9,36.5,133.3,36.8,132.7,36.8z
		"/>
	<path class="st0" d="M169,37.1c-1.4,0-2.7-0.3-4-0.9c-1.2-0.6-2.2-1.4-3-2.5c-0.8-1.2-1.1-2.6-1.1-4c0-2.2,1-4.4,2.8-5.7
		c1.9-1.5,4.7-2.2,8.5-2.2h5.9v-0.5c0-2.2-0.5-3.8-1.6-4.7c-1.4-1-3.2-1.5-4.9-1.4c-1.2,0-2.4,0.1-3.6,0.4c-1,0.2-2,0.5-3,0.8
		c-0.2,0.1-0.4,0.1-0.6,0.1c-0.5,0-1-0.2-1.3-0.5c-0.4-0.3-0.6-0.8-0.5-1.3c0-0.8,0.5-1.6,1.3-1.9c1.2-0.5,2.5-0.9,3.8-1.3
		c1.5-0.4,3.1-0.5,4.7-0.5c2.1-0.1,4.1,0.4,5.9,1.4c1.4,0.9,2.6,2.1,3.4,3.6c0.7,1.4,1.1,3,1.1,4.6v13.9c0,0.6-0.2,1.2-0.7,1.6
		c-0.4,0.4-1,0.7-1.6,0.6c-1.2,0-2.2-1-2.2-2.2c0,0,0,0,0,0v-1.3c-1,1-2.2,1.9-3.6,2.6C173,36.7,171,37.1,169,37.1z M170.7,33.1
		c1.5,0,3-0.4,4.3-1.1c1.2-0.7,2.3-1.5,3.3-2.6v-4.1h-5.4c-1.9-0.1-3.7,0.2-5.4,0.9c-1.2,0.5-2,1.7-2,3c0,1,0.4,2,1.1,2.8
		C167.3,32.7,168.7,33.1,170.7,33.1z"/>
	<path class="st1" d="M220.1,5.2c1.7,0,1.6-3.4,0-3.7l-9.4,0c-18.1,0.2-24.1,32.1,1.1,35.3c1.8,0,3.5-0.7,4.7-2l12.3-25.8
		c0.6-1.3,1.1-1.4,1.7,0L243,36.4c1.4,0.8,3.2,0.7,4.6-0.1L232,2.6c-1.3-1.6-2.7-1.9-4.1,0.1l-13.3,27.7c-0.5,1.1-1.4,2-2.6,2.3
		c-15.9,0.6-20.1-25.2-0.8-27.6L220.1,5.2z"/>
	<path class="st2" d="M229.3,10.9l12.2,26.8c0.2,0.3,0.4,0.4,0.6,0.4l-0.1,0.7c-0.5-0.1-0.8-0.4-1-0.8l-12-26.3L229.3,10.9z"/>
	<polygon class="st3" points="233.6,19.7 241.2,17.1 243.4,21.3 232.8,25.3 231.6,20.5 	"/>
	<g>
		<path class="st4" d="M228.7,25.2c0,0,16.9-5.6,25.7-9.1c-2.9,1.9-6.2,3.8-10,5.7c-4,2-7.8,3.5-11.1,4.6c0.7,1.7,1.4,3.3,2.2,5
			l-2.5,1.6C231.5,30.4,230.1,27.8,228.7,25.2z"/>
		<path class="st5" d="M220.8,21.9c0,0,17.6-3.9,26.8-6.9c-3,1.7-18.5,7.9-22.1,8.9c0.7,1.6,1.4,2.7,2.1,4.4l-2.6,1.4
			C223.5,27.1,222.2,24.5,220.8,21.9z"/>
	</g>
</g>
</svg>
